<svg id="bell_1_" data-name="bell (1)" xmlns="http://www.w3.org/2000/svg" width="13.856" height="16.627" viewBox="0 0 13.856 16.627">
  <path id="Path_25" data-name="Path 25" d="M15.426,11.717a4.64,4.64,0,0,1-1.648-3.551V6.235A4.853,4.853,0,0,0,9.621,1.441V.693a.693.693,0,0,0-1.386,0v.748A4.853,4.853,0,0,0,4.078,6.235V8.167a4.645,4.645,0,0,1-1.654,3.556,1.212,1.212,0,0,0,.788,2.133H14.643a1.212,1.212,0,0,0,.782-2.139Z" transform="translate(-2 0)" fill="#aaa"/>
  <path id="Path_26" data-name="Path 26" d="M10.871,23.078A2.6,2.6,0,0,0,13.417,21H8.326A2.6,2.6,0,0,0,10.871,23.078Z" transform="translate(-3.943 -6.451)" fill="#aaa"/>
</svg>
