<svg xmlns="http://www.w3.org/2000/svg" width="24.273" height="23.876" viewBox="0 0 24.273 23.876">
  <g id="Group_822" data-name="Group 822" transform="translate(519.056 -345.489)">
    <path id="Path_142" data-name="Path 142" d="M-513.553,345.49c1.3,0,2.607,0,3.91,0a1.421,1.421,0,0,1,1.561,1.569q0,3.891,0,7.782a1.42,1.42,0,0,1-1.57,1.558q-3.931,0-7.861,0a1.414,1.414,0,0,1-1.541-1.547q0-3.911,0-7.822a1.418,1.418,0,0,1,1.55-1.539C-516.187,345.487-514.87,345.49-513.553,345.49Zm3.977,9.434v-7.94h-7.99v7.94Z" fill="#969696"/>
    <path id="Path_143" data-name="Path 143" d="M-350.851,356.4q-1.955,0-3.91,0a1.419,1.419,0,0,1-1.562-1.568q0-3.891,0-7.782a1.422,1.422,0,0,1,1.571-1.56q3.91,0,7.82,0a1.428,1.428,0,0,1,1.581,1.59q0,3.871,0,7.741a1.423,1.423,0,0,1-1.59,1.579Q-348.9,356.4-350.851,356.4Zm-3.991-1.494h8v-7.928h-8Z" transform="translate(-149.434 -0.001)" fill="#969696"/>
    <path id="Path_144" data-name="Path 144" d="M-513.556,504.145q1.955,0,3.91,0a1.42,1.42,0,0,1,1.564,1.565q0,3.891,0,7.782a1.423,1.423,0,0,1-1.568,1.563q-3.93,0-7.861,0a1.416,1.416,0,0,1-1.543-1.546q0-3.911,0-7.823a1.415,1.415,0,0,1,1.547-1.541Q-515.531,504.142-513.556,504.145Zm3.993,1.494h-8v7.927h8Z" transform="translate(0 -145.692)" fill="#969696"/>
    <path id="Path_145" data-name="Path 145" d="M-350.8,504.145c1.3,0,2.607,0,3.91,0a1.414,1.414,0,0,1,1.542,1.545q0,3.911,0,7.823a1.415,1.415,0,0,1-1.547,1.541q-3.931,0-7.861,0a1.421,1.421,0,0,1-1.564-1.567q0-3.891,0-7.782a1.421,1.421,0,0,1,1.569-1.561Q-352.779,504.142-350.8,504.145Zm3.96,9.43v-7.939h-7.995v7.939Z" transform="translate(-149.434 -145.691)" fill="#969696"/>
  </g>
</svg>
