<svg xmlns="http://www.w3.org/2000/svg" width="17.797" height="13.111" viewBox="0 0 17.797 13.111">
  <g id="email_1_" data-name="email (1)" transform="translate(0 -57.088)">
    <g id="Group_11" data-name="Group 11" transform="translate(0 60.786)">
      <g id="Group_10" data-name="Group 10" transform="translate(0 0)">
        <path id="Path_14" data-name="Path 14" d="M9.413,152.306a1.012,1.012,0,0,1-1.051,0L0,147.2v6.787a2.627,2.627,0,0,0,2.626,2.626H15.171a2.627,2.627,0,0,0,2.626-2.626V147.2Z" transform="translate(0 -147.2)" fill="#fff"/>
      </g>
    </g>
    <g id="Group_13" data-name="Group 13" transform="translate(0.084 57.088)">
      <g id="Group_12" data-name="Group 12" transform="translate(0 0)">
        <path id="Path_15" data-name="Path 15" d="M17.135,57.088H4.59a2.611,2.611,0,0,0-2.542,2.059l8.825,5.379,8.8-5.379A2.611,2.611,0,0,0,17.135,57.088Z" transform="translate(-2.048 -57.088)" fill="#fff"/>
      </g>
    </g>
  </g>
</svg>
