<svg xmlns="http://www.w3.org/2000/svg" width="20.777" height="12.385" viewBox="0 0 20.777 12.385">
  <g id="eye" transform="translate(0 -98.725)">
    <path id="Path_16" data-name="Path 16" d="M10.388,98.725c-3.97,0-7.57,2.172-10.226,5.7a.822.822,0,0,0,0,.982c2.656,3.532,6.256,5.7,10.226,5.7s7.57-2.172,10.226-5.7a.822.822,0,0,0,0-.982C17.958,100.9,14.358,98.725,10.388,98.725Zm.285,10.553a4.37,4.37,0,1,1,4.076-4.076A4.373,4.373,0,0,1,10.673,109.278Zm-.132-2.015a2.353,2.353,0,1,1,2.2-2.2A2.349,2.349,0,0,1,10.541,107.264Z" transform="translate(0 0)" fill="#fff"/>
  </g>
</svg>
