<svg xmlns="http://www.w3.org/2000/svg" width="27.535" height="23.812" viewBox="0 0 27.535 23.812">
  <g id="Group_725" data-name="Group 725" transform="translate(-5910.45 -944.046)">
    <path id="Path_111" data-name="Path 111" d="M5922.151,959.866c-.488.034-.955.043-1.415.1a1.407,1.407,0,0,0-.834.582c-.582.671-1.158,1.346-1.738,2.018-.293.339-.573.69-.886,1.009a1.206,1.206,0,0,1-2.01-.332,1.323,1.323,0,0,1-.1-.5c0-.772.011-1.544.021-2.317a.443.443,0,0,0-.332-.474,1.5,1.5,0,0,0-.4-.056c-.845,0-1.69,0-2.535,0a1.42,1.42,0,0,1-1.466-1.458q0-2.437,0-4.875v-7.994a1.449,1.449,0,0,1,1.527-1.519q7.679,0,15.36,0a1.491,1.491,0,0,1,1.524,1.526c-.029,1.624-.009,3.25-.009,4.875v.267h7.693a1.305,1.305,0,0,1,1.438,1.434v10.811a1.292,1.292,0,0,1-1.412,1.411c-.729,0-1.458,0-2.188,0-.27,0-.3.027-.3.3q0,.736.012,1.473a1.63,1.63,0,0,1-1,1.577,1.6,1.6,0,0,1-1.83-.374c-.557-.6-1.077-1.225-1.612-1.84-.241-.278-.484-.555-.72-.837a.826.826,0,0,0-.684-.3c-1.566.006-3.134,0-4.7,0a1.277,1.277,0,0,1-1.3-.809,1.461,1.461,0,0,1-.091-.506c-.009-.968,0-1.935,0-2.9Zm1.806.029c0,.762,0,1.5,0,2.232,0,.294.037.33.341.33,1.249,0,2.5.025,3.748-.008a2.8,2.8,0,0,1,2.363,1.124c.526.641,1.078,1.262,1.622,1.889a.68.68,0,0,0,.175.106.577.577,0,0,0,.07-.186c0-.368.009-.737-.012-1.1a1.707,1.707,0,0,1,1.694-1.822c.628,0,1.257,0,1.885,0,.353,0,.38-.028.38-.384q0-4.582,0-9.164c0-.338-.031-.37-.371-.37h-7v.294c0,1.877.006,3.755-.007,5.632a1.515,1.515,0,0,1-.169.68,1.332,1.332,0,0,1-1.247.749Zm-4.306-5.247h-5.977c-.065,0-.13,0-.195,0a.654.654,0,0,0-.593.4.623.623,0,0,0,.111.7.729.729,0,0,0,.6.23q6.032,0,12.063,0a1.288,1.288,0,0,0,.216-.014.649.649,0,0,0,.559-.706.664.664,0,0,0-.724-.617Q5922.682,954.647,5919.651,954.648Zm0-5.364q3.021,0,6.042,0a1.019,1.019,0,0,0,.277-.026.654.654,0,0,0,.464-.755.683.683,0,0,0-.743-.554q-6.053,0-12.106,0a.971.971,0,0,0-.415.1.639.639,0,0,0-.316.734.65.65,0,0,0,.667.5Zm0,3.345q3.053,0,6.107,0a.661.661,0,0,0,.231-1.289,1.186,1.186,0,0,0-.342-.035q-6.008,0-12.018,0c-.065,0-.131,0-.2.006a.634.634,0,0,0-.564.439.657.657,0,0,0,.674.88Q5916.6,952.631,5919.648,952.629Z" fill="#c1c1c1"/>
  </g>
</svg>
