<svg xmlns="http://www.w3.org/2000/svg" width="15.189" height="21" viewBox="0 0 15.189 21">
  <g id="lock-padlock-symbol-for-security-interface" transform="translate(-80.994)">
    <g id="Group_9" data-name="Group 9" transform="translate(80.994)">
      <path id="Path_13" data-name="Path 13" d="M88.588,0a6.148,6.148,0,0,0-6.141,6.141V9.649a.165.165,0,0,1-.088.12c-.332.111-.6.207-.849.3a.85.85,0,0,0-.517.759v8.059a.856.856,0,0,0,.513.76,19.223,19.223,0,0,0,14.162,0,.855.855,0,0,0,.513-.759V10.83a.85.85,0,0,0-.517-.759c-.247-.1-.517-.191-.849-.3a.165.165,0,0,1-.088-.12V6.141A6.148,6.148,0,0,0,88.588,0ZM86.916,13.284a1.673,1.673,0,0,1,3.345,0,1.648,1.648,0,0,1-.836,1.416v2.765a.836.836,0,1,1-1.673,0V14.7A1.648,1.648,0,0,1,86.916,13.284Zm5.7-7.143V9.168a19.17,19.17,0,0,0-8.059,0V6.141a4.03,4.03,0,0,1,8.059,0Z" transform="translate(-80.994)" fill="#fff"/>
    </g>
  </g>
</svg>
