<svg id="Group_867" data-name="Group 867" xmlns="http://www.w3.org/2000/svg" width="10.797" height="12.672" viewBox="0 0 10.797 14.672">
  <path id="Path_167" data-name="Path 167" d="M554.767,245.131c0,.766.006,1.532,0,2.3a2.311,2.311,0,0,1-4.592.4,3.329,3.329,0,0,1-.036-.468q0-2.235,0-4.469a2.316,2.316,0,0,1,4.629-.166c.015.8,0,1.6,0,2.406Z" transform="translate(-547.054 -240.494)" fill="#fff"/>
  <path id="Path_168" data-name="Path 168" d="M492.641,392.094H491.1v-.2c0-.718,0-1.436,0-2.154,0-.13-.029-.184-.17-.211a5.441,5.441,0,0,1-3.624-2.392,4.864,4.864,0,0,1-.84-2.755h1.3a3.805,3.805,0,0,0,1.593,3.1,4.122,4.122,0,0,0,2.714.82,4.024,4.024,0,0,0,3.9-3.927h1.288a3.985,3.985,0,0,1-.216,1.458,5.37,5.37,0,0,1-4.172,3.673c-.192.042-.247.109-.243.3.013.687.005,1.375.005,2.063Z" transform="translate(-486.472 -377.422)" fill="#fff"/>
</svg>
