<svg xmlns="http://www.w3.org/2000/svg" width="24.551" height="24.551" viewBox="0 0 24.551 24.551">
  <path id="gear" d="M23.973,9.48l-1.887-.41a10.269,10.269,0,0,0-.607-1.464L22.523,5.98a.734.734,0,0,0-.1-.915l-2.94-2.94a.734.734,0,0,0-.915-.1L16.945,3.072a10.269,10.269,0,0,0-1.464-.607L15.071.577A.734.734,0,0,0,14.354,0H10.2A.734.734,0,0,0,9.48.577L9.07,2.464a10.269,10.269,0,0,0-1.464.607L5.98,2.027a.734.734,0,0,0-.915.1l-2.94,2.94a.734.734,0,0,0-.1.915L3.072,7.605A10.269,10.269,0,0,0,2.464,9.07L.578,9.48A.734.734,0,0,0,0,10.2v4.157a.734.734,0,0,0,.578.717l1.887.41a10.269,10.269,0,0,0,.607,1.464L2.027,18.57a.734.734,0,0,0,.1.915l2.94,2.94a.734.734,0,0,0,.915.1l1.625-1.045a10.269,10.269,0,0,0,1.464.607l.41,1.887a.734.734,0,0,0,.717.578h4.157a.734.734,0,0,0,.717-.578l.41-1.887a10.269,10.269,0,0,0,1.464-.607l1.625,1.045a.734.734,0,0,0,.915-.1l2.94-2.94a.734.734,0,0,0,.1-.915l-1.045-1.625a10.269,10.269,0,0,0,.607-1.464l1.887-.41a.734.734,0,0,0,.578-.717V10.2A.734.734,0,0,0,23.973,9.48Zm-7.3,2.8a4.4,4.4,0,1,1-4.4-4.4A4.407,4.407,0,0,1,16.677,12.275Zm0,0" transform="translate(0 0)" fill="#161616"/>
</svg>
